<?xml version="1.0" standalone="no"?>
<!DOCTYPE svg PUBLIC "-//W3C//DTD SVG 20010904//EN"
 "http://www.w3.org/TR/2001/REC-SVG-20010904/DTD/svg10.dtd">
<svg version="1.0" xmlns="http://www.w3.org/2000/svg"
 width="512.000000pt" height="512.000000pt" viewBox="0 0 512.000000 512.000000"
 preserveAspectRatio="xMidYMid meet">

<g transform="translate(0.000000,512.000000) scale(0.100000,-0.100000)"
fill="#000000" stroke="none">
<path d="M370 4244 c-158 -43 -289 -187 -320 -353 -13 -70 -13 -523 0 -592 14
-73 60 -168 106 -219 22 -24 75 -67 119 -95 93 -61 163 -132 199 -204 119
-234 43 -491 -189 -639 -119 -75 -172 -137 -216 -247 -22 -57 -23 -75 -27
-331 -2 -167 0 -293 7 -330 24 -129 108 -251 221 -317 104 -61 -37 -57 2290
-57 2327 0 2186 -4 2290 57 111 65 197 187 220 312 13 70 13 523 0 592 -14 73
-60 168 -106 219 -22 24 -82 71 -134 105 -105 69 -146 114 -190 206 -63 134
-62 289 5 425 43 88 91 138 197 207 46 30 100 73 122 97 46 51 92 146 106 219
13 69 13 522 0 592 -23 125 -109 247 -220 312 -104 61 38 57 -2295 56 -1842 0
-2137 -2 -2185 -15z m1010 -330 c0 -121 14 -177 52 -209 42 -35 115 -35 157 1
40 33 51 77 51 202 l0 102 1484 0 c952 0 1502 -4 1536 -10 66 -12 116 -50 141
-104 17 -37 19 -69 19 -301 0 -319 -1 -321 -121 -400 -100 -66 -135 -95 -192
-163 -190 -227 -223 -549 -85 -815 54 -104 155 -211 268 -286 131 -86 130 -84
130 -403 0 -313 -7 -341 -102 -389 -36 -18 -85 -19 -1558 -19 l-1520 0 0 98
c0 119 -12 163 -51 196 -42 36 -115 36 -157 1 -38 -32 -52 -88 -52 -209 l0
-96 -434 0 c-248 0 -456 4 -486 10 -66 12 -116 50 -141 104 -17 37 -19 69 -19
301 0 319 1 321 121 400 141 93 213 170 279 297 57 109 81 209 81 338 0 259
-122 478 -351 629 -131 86 -130 84 -130 406 0 232 2 264 19 301 23 52 75 92
132 103 24 5 243 9 487 10 l442 1 0 -96z"/>
<path d="M2517 3450 c-110 -28 -201 -103 -250 -208 -29 -61 -32 -75 -32 -167
1 -80 5 -111 23 -157 64 -159 247 -258 421 -228 214 37 350 232 314 446 -33
189 -169 312 -356 320 -45 2 -99 -1 -120 -6z m196 -290 c35 -39 39 -107 11
-162 -28 -54 -113 -74 -174 -43 -72 37 -87 157 -26 214 51 48 142 44 189 -9z"/>
<path d="M3818 3417 c-42 -19 -1537 -1513 -1554 -1553 -27 -65 13 -143 84
-163 77 -22 53 -44 875 777 l767 767 0 51 c0 60 -25 99 -76 120 -40 17 -60 17
-96 1z"/>
<path d="M1442 3300 c-54 -33 -62 -66 -62 -270 0 -204 8 -237 62 -270 66 -40
155 -13 184 55 20 49 20 381 0 430 -18 42 -69 75 -116 75 -19 0 -50 -9 -68
-20z"/>
<path d="M3568 2430 c-256 -43 -390 -328 -268 -570 98 -194 369 -259 557 -135
195 129 220 441 49 603 -64 61 -99 80 -184 98 -74 15 -85 15 -154 4z m127
-264 c45 -19 75 -69 75 -125 0 -37 -6 -49 -39 -82 -34 -34 -44 -39 -85 -39
-88 0 -138 47 -138 127 0 54 23 90 73 115 41 22 69 22 114 4z"/>
<path d="M1442 2360 c-54 -33 -62 -66 -62 -270 0 -204 8 -237 62 -270 66 -40
155 -13 184 55 20 49 20 381 0 430 -18 42 -69 75 -116 75 -19 0 -50 -9 -68
-20z"/>
</g>
</svg>
